<svg width="39" height="39" viewBox="0 0 39 39" fill="none" xmlns="http://www.w3.org/2000/svg">
<rect width="39" height="39" rx="19.5" fill="#231815"/>
<path d="M19.0567 28.1421C14.0487 28.1421 9.97144 24.0648 9.97144 19.0568C9.97144 14.0489 14.0487 9.97162 19.0567 9.97162C24.0646 9.97162 28.1419 14.0489 28.1419 19.0568C28.1419 24.0648 24.0646 28.1421 19.0567 28.1421ZM19.0567 11.3012C14.7755 11.3012 11.301 14.7846 11.301 19.0568C11.301 23.3291 14.7755 26.8125 19.0567 26.8125C23.3378 26.8125 26.8123 23.3291 26.8123 19.0568C26.8123 14.7846 23.3378 11.3012 19.0567 11.3012Z" fill="white"/>
<path d="M28.3635 29.0284C28.1951 29.0284 28.0267 28.9664 27.8937 28.8334L26.121 27.0607C25.864 26.8036 25.864 26.3782 26.121 26.1211C26.3781 25.8641 26.8035 25.8641 27.0606 26.1211L28.8333 27.8939C29.0903 28.1509 29.0903 28.5764 28.8333 28.8334C28.7003 28.9664 28.5319 29.0284 28.3635 29.0284Z" fill="white"/>
</svg>
